<svg width="214" height="45" viewBox="0 0 428 135" fill="none" xmlns="http://www.w3.org/2000/svg">
    <view id="l-default" viewBox="0 0 214 45" />
    <view id="l-hover" viewBox="0 45 214 45" />
    <view id="l-active" viewBox="0 90 214 45" />
    <view id="r-default" viewBox="214 0 214 45" />
    <view id="r-hover" viewBox="214 45 214 45" />
    <view id="r-active" viewBox="214 90 214 45" />
    <style>
        .default {
            --fill-opacity: 0;
            --stroke-opacity: 0.3;
        }
        .hover {
            --fill-opacity: 0.1;
            --stroke-opacity: 1;
        }
        .active {
            --fill-opacity: 0.4;
            --stroke-opacity: 1;
        }
    </style>
    <defs>
        <path id="p-r" d="M213 1H1.31769V21.5064V24.5074V44.2635H199.927L213 30.7593V1Z" />
        <path id="p-l" d="M1 1.17688H212.682V21.6833V24.6842V44.4404H14.073L1 30.9362V1.17688Z" />
        <g id="right">
            <use href="#p-r" fill="#0E0E17" fill-opacity="0.8" />
            <use href="#p-r" fill="#FF3B45" fill-opacity="0.1"
                style="fill-opacity: var(--fill-opacity, 0)" />
            <path
                d="M1.31769 24.5074V44.2635H199.927L213 30.7593V1H1.31769V21.5064M1.31769 24.5074H30.4806V21.5064H1.31769M1.31769 24.5074V21.5064"
                stroke="#FF3B45" stroke-opacity="0.3" style="stroke-opacity: var(--stroke-opacity, 0.3)" />
        </g>
        <g id="left">
            <use href="#p-l"  fill="#0E0E17" fill-opacity="0.8"/>
            <use href="#p-l"  fill="#FF3B45" fill-opacity="0.1"
                style="fill-opacity: var(--fill-opacity, 0)"/>
            <path d="M212.682 24.6842V44.4404H14.073L1 30.9362V1.17688H212.682V21.6833M212.682 24.6842H183.519V21.6833H212.682M212.682 24.6842V21.6833"
                stroke="#FF3B45" stroke-opacity="0.3" style="stroke-opacity: var(--stroke-opacity, 0.3)"/>
        </g>
    </defs>
    <use href="#left" class="default" />
    <use href="#left" y="45" class="hover" />
    <use href="#left" y="90" class="active" />
    <use href="#right" x="214" class="default" />
    <use href="#right" x="214" y="45" class="hover" />
    <use href="#right" x="214" y="90" class="active" />
</svg>