<svg viewBox="0 0 577 115" fill="none" xmlns="http://www.w3.org/2000/svg">
<path d="M573 72.6625L576.271 69.5222V40.0222L573 33.5V72.6625Z" fill="#0E0E17" fill-opacity="0.8"/>
<path d="M573 72.6625L576.271 69.5222V40.0222L573 33.5V72.6625Z" fill="#FF3B45" fill-opacity="0.4"/>
<path d="M54.3857 113.728H530.37L573 72.6625V33.5V1H54.3857V113.728Z" fill="#0E0E17" fill-opacity="0.8"/>
<path d="M573 72.6625L576.271 69.5222V40.0222L573 33.5M573 72.6625L530.37 113.728H54.3857V1H573V33.5M573 72.6625V33.5" stroke="#FF3B45" stroke-opacity="0.3"/>
<path d="M50 1V19.4217L44.6634 24.5V89.1472L50 93.5V113.5H12.401L1 105.036V63.3855V60V9.22203L5.60891 5.35284H23.802L28.1683 1H50Z" fill="#0E0E17" fill-opacity="0.8"/>
<path d="M50 1V19.4217L44.6634 24.5V89.1472L50 93.5V113.5H12.401L1 105.036V63.3855V60V9.22203L5.60891 5.35284H23.802L28.1683 1H50Z" fill="#FF3B45" fill-opacity="0.4"/>
<path d="M1 60V9.22203L5.60891 5.35284H23.802L28.1683 1H50V19.4217L44.6634 24.5V89.1472L50 93.5V113.5H12.401L1 105.036V63.3855M1 60H13.1287V63.3855H1M1 60V63.3855" stroke="#FF3B45" stroke-opacity="0.3"/>
</svg>
