<svg width="577" height="200" viewBox="0 0 577 200" fill="none" xmlns="http://www.w3.org/2000/svg">
<style>
    #light-mask rect{ animation: highlight 5s infinite; }
    @keyframes highlight {
        0% { transform: translate(-400px,50px) rotate(-50deg); }
        40%  { transform: translate(430px,0) rotate(-50deg); }
        100%  { transform: translate(450px,0) rotate(-50deg); }
    }
</style>
<defs>
<linearGradient id="light-gradient">
    <stop offset="0%" stop-color="#ffffff00"/>
    <stop offset="40%" stop-color="#FFF"/>
    <stop offset="60%" stop-color="#FFF"/>
    <stop offset="100%" stop-color="#ffffff00"/>
</linearGradient>
<mask id="light-mask"> <rect y="0" x="90" width="50" height="420" fill="url(#light-gradient)" /></mask>
<path id="p1" d="M572.614 157.934L575.886 154.794V94.5L572.614 87.9778V157.934Z" />
<path id="p2" d="M50 1V51.4217L44.6634 56.5V137.5L50 141.853V199H12.401L1 190.536V99V95.6145V9.22203L5.60891 5.35284H23.802L28.1683 1H50Z" />
<path id="stroke1" d="M572.614 157.934L575.886 154.794V94.5L572.614 87.9778M572.614 157.934L529.984 199H54V1H572.614V87.9778M572.614 157.934V87.9778"/>
<path id="stroke2" d="M1 95.6145V9.22203L5.60891 5.35284H23.802L28.1683 1H50V51.4217L44.6634 56.5V137.5L50 141.853V199H12.401L1 190.536V99M1 95.6145H13.1287V99H1M1 95.6145V99"/>
</defs>
<use href="#p1" fill="#0E0E17" fill-opacity="0.8"/>
<use href="#p1" fill="#FF3B45" fill-opacity="0.4"/>
<path d="M54 199H529.984L572.614 157.934V87.9778V1H54V199Z" fill="#0E0E17" fill-opacity="0.8"/>
<use href="#p2" fill="#0E0E17" fill-opacity="0.8"/>
<use href="#p2" fill="#FF3B45" fill-opacity="0.4"/>
<use href="#stroke1"  stroke="#FF3B45" stroke-opacity="0.3"/>
<use href="#stroke2"  stroke="#FF3B45" stroke-opacity="0.3"/>
<use href="#stroke1"  stroke="#FF3B45" stroke-opacity="1" mask="url(#light-mask)"/>
<use href="#stroke2"  stroke="#FF3B45" stroke-opacity="1" mask="url(#light-mask)"/>
</svg>
