<svg width="577" height="391" viewBox="0 0 577 391" fill="none" xmlns="http://www.w3.org/2000/svg">
<style>
    #light-mask rect{ animation: highlight 5s infinite; }
    @keyframes highlight {
        0% { transform: translate(-400px,300px) rotate(-50deg); }
        30%  { transform: translate(250px,-150px) rotate(-50deg); }
        100%  { transform: translate(250px,-150px) rotate(-50deg); }
    }
</style>
<defs>
<linearGradient id="light-gradient">
    <stop offset="0%" stop-color="#ffffff00"/>
    <stop offset="40%" stop-color="#FFF"/>
    <stop offset="60%" stop-color="#FFF"/>
    <stop offset="100%" stop-color="#ffffff00"/>
</linearGradient>
<mask id="light-mask"> <rect y="0" x="90" width="50" height="820" fill="url(#light-gradient)" /></mask>
<path id="p1" d="M572.614 349.069L575.886 345.928V161.5L572.614 154.9778V349.069Z" />
<path id="p2" d="M50 10V51.4217L44.6634 56.5V328.593L50 332.946V390.5H12.401L1 382.036V9.22203L5.60891 5.35284H23.802L28.1683 1H50Z" />
<path id="stroke1" d="M572.614 349.069L575.886 345.928V161.5L572.614 154.9778M572.614 349.069L529.984 390.135H54V1H572.614V154.9778M572.614 349.069V87.9778"/>
<path id="stroke2" d="M1 187.114V9.22203L5.60891 5.35284H23.802L28.1683 1H50V51.4217L44.6634 56.5V328.593L50 332.946V390.5H12.401L1 382.036V190.5M1 187.114H13.1287V190.5H1M1 187.114V190.5"/>
</defs>
<use href="#p1" fill="#0E0E17" fill-opacity="0.8"/>
<use href="#p1" fill="#FF3B45" fill-opacity="0.4"/>
<path d="M54 390.135H529.984L572.614 349.069V1H54Z" fill="#0E0E17" fill-opacity="0.8"/>
<use href="#p2" fill="#0E0E17" fill-opacity="0.8"/>
<use href="#p2" fill="#FF3B45" fill-opacity="0.4"/>
<use href="#stroke1" stroke="#FF3B45" stroke-opacity="0.3"/>
<use href="#stroke2" stroke="#FF3B45" stroke-opacity="0.3"/>
<use href="#stroke1" stroke="#FF3B45" mask="url(#light-mask)"/>
<use href="#stroke2" stroke="#FF3B45" mask="url(#light-mask)"/>
</svg>
