<svg width="201" height="174" viewBox="0 0 201 348" fill="none" xmlns="http://www.w3.org/2000/svg">
<view id="default" viewBox="0 0 201 174" />
<view id="hover" viewBox="0 174 201 174" />
<defs>
    <g id="g1">
        <path d="M1 173H163L199.751 140.5V1H1V173Z" fill="#0E0E17" fill-opacity="0.8"/>
        <path d="M1 173H163L199.751 140.5V1H1V173Z" stroke="#FF3B45" stroke-opacity="0.3"/>
    </g>
    <g id="g2">
        <path d="M0.000488281 15C7.20015 10.5 16.5001 4.49999 49.5005 4.5V12C32.2501 12 13.5001 12 0.000488281 22.5V15Z" fill="#FF3B45"/>
        <path d="M21 36C15.75 36 6.75 31.5 0 27V34.5C6 39 11.25 40.5 21 43.5V51L42 40.5L21 28.5V36Z" fill="#FF3B45"/>
        <path d="M102 36C94.8003 40.5 85.5004 46.5 52.5 46.5V39C69.7504 39 88.5004 39 102 28.5V36Z" fill="#FF3B45"/>
        <path d="M81.0005 15C86.2505 15 95.2505 19.5 102 24V16.5C96.0005 12 90.7505 10.5 81.0005 7.5V0L60.0005 10.5L81.0005 22.5V15Z" fill="#FF3B45"/>
        <path d="M24.76 72.2H26.36V74.008L24.504 75.08H20.296L18.44 74.008V64.792L20.296 63.72H24.504L26.36 64.792V66.6H24.76V65.16H20.04V73.64H24.76V72.2ZM30.6806 69.96V75H29.0806V63.8H30.6806V68.52H36.0406V63.8H37.6406V75H36.0406V69.96H30.6806ZM45.3821 63.8L49.3821 75H47.8141L46.8701 72.344H41.9101L40.9661 75H39.3981L43.3981 63.8H45.3821ZM44.3741 65.384L42.4221 70.904H46.3581L44.4061 65.384H44.3741ZM52.7431 66.536V75H51.1431V63.8H52.5991L58.3911 72.264H58.4231V63.8H60.0231V75H58.5671L52.7751 66.536H52.7431ZM67.3888 70.84V69.4H70.8288V74.008L68.9728 75.08H64.7648L62.9088 74.008V64.792L64.7648 63.72H68.9728L70.8288 64.792V66.6H69.2288V65.16H64.5088V73.64H69.2288V70.84H67.3888ZM75.3056 69.96V73.56H80.0896V75H73.7056V63.8H80.0896V65.24H75.3056V68.52H79.1296V69.96H75.3056Z" fill="#FF3B45"/>
    </g>
</defs>
<use href="#g1" />
<!-- <use href="#g1" y="174" /> -->
<use href="#g2" x="47" y="220" />
</svg>
