<svg viewBox="0 0 577 508" fill="none" xmlns="http://www.w3.org/2000/svg">
<style>
    #light-mask rect{ animation: highlight 5s infinite; }
    @keyframes highlight {
        0% { transform: translate(-400px,400px) rotate(-50deg); }
        50%  { transform: translate(300px,-300px) rotate(-50deg); }
        100%  { transform: translate(400px,-400px) rotate(-50deg); }
    }
</style>
<linearGradient id="light-gradient">
    <stop offset="0%" stop-color="#ffffff00"/>
    <stop offset="40%" stop-color="#FFF"/>
    <stop offset="60%" stop-color="#FFF"/>
    <stop offset="100%" stop-color="#ffffff00"/>
</linearGradient>
<mask id="light-mask"><rect y="0" x="0" width="100" height="800" fill="url(#light-gradient)" /></mask>
<path d="M573 465.569L576.271 462.428V278L573 271.478V465.569Z" fill="#0E0E17" fill-opacity="0.8"/>
<path d="M573 465.569L576.271 462.428V278L573 271.478V465.569Z" fill="#FF3B45" fill-opacity="0.4"/>
<path d="M54.3856 506.635H530.37L573 465.569V271.478V1H54.3856V506.635Z" fill="#0E0E17" fill-opacity="0.8"/>
<path d="M573 465.569L576.271 462.428V278L573 271.478M573 465.569L530.37 506.635H54.3856V1H573V271.478M573 465.569V271.478" stroke="#FF3B45" stroke-opacity="0.3"/>
<path d="M50 1V51.2995L44.6634 56.3778V445.093L50 449.446V507H12.401L1 498.536V249.268V245.882V9.22203L5.60891 5.35284H23.802L28.1683 1H50Z" fill="#0E0E17" fill-opacity="0.8"/>
<path d="M50 1V51.2995L44.6634 56.3778V445.093L50 449.446V507H12.401L1 498.536V249.268V245.882V9.22203L5.60891 5.35284H23.802L28.1683 1H50Z" fill="#FF3B45" fill-opacity="0.4"/>
<path d="M1 245.882V9.22203L5.60891 5.35284H23.802L28.1683 1H50V51.2995L44.6634 56.3778V445.093L50 449.446V507H12.401L1 498.536V249.268M1 245.882H13.1287V249.268H1M1 245.882V249.268" stroke="#FF3B45" stroke-opacity="0.3"/>
<g mask="url(#light-mask)" class="_transformer">
<path d="M573 465.569L576.271 462.428V278L573 271.478M573 465.569L530.37 506.635H54.3856V1H573V271.478M573 465.569V271.478" stroke="#FF3B45" stroke-opacity="0.8"/>
<path d="M1 245.882V9.22203L5.60891 5.35284H23.802L28.1683 1H50V51.2995L44.6634 56.3778V445.093L50 449.446V507H12.401L1 498.536V249.268M1 245.882H13.1287V249.268H1M1 245.882V249.268" stroke="#FF3B45" stroke-opacity="0.8"/>
</g>
</svg>
